<svg viewBox="0 0 128 128" xmlns="http://www.w3.org/2000/svg" xmlns:xlink="http://www.w3.org/1999/xlink" id="Layer_1" overflow="hidden"><defs></defs><path d="M106.09 20.5C106.869 20.5 107.5 21.1313 107.5 21.91L107.5 106.1C107.5 106.879 106.869 107.51 106.09 107.51L21.91 107.51C21.1313 107.51 20.5 106.879 20.5 106.1L20.5 21.91C20.5 21.1313 21.1313 20.5 21.91 20.5L106.1 20.5M106.1 14 21.91 14C17.5414 14 14 17.5414 14 21.91L14 106.1C14.0055 110.465 17.5453 114 21.91 114L106.1 114C110.469 114 114.01 110.459 114.01 106.09L114.01 21.91C114.01 17.5414 110.469 14 106.1 14 106.097 14 106.093 14 106.09 14Z" fill="#A6A6A6"/><rect x="37.27" y="50.4" width="11.73" height="41.73" fill="#A6A6A6"/><path d="M77.23 50.4C67.18 50.4 67 56.21 67 56.61L67 50.4 55 50.4 55 92.13 67 92.13 67 68.31C67 66.45 67.55 62.45 73.23 62.45 78.91 62.45 78.86 68.18 78.86 68.18L78.86 92.18 90.73 92.18 90.73 66.18C90.73 53.85 84 50.4 77.23 50.4Z" fill="#A6A6A6"/><circle cx="43.13" cy="41.73" r="5.86" fill="#A6A6A6"/></svg>